<svg width="222" height="118" viewBox="0 0 222 118" fill="none" xmlns="http://www.w3.org/2000/svg">
<path d="M23.41 65.0872V53.9122H24.385V65.0872H23.41ZM34.8393 65.0872V53.9122H35.6643L39.8343 60.1222H39.4293L43.6143 53.9122H44.4393V65.0872H43.4643V55.3372L43.7043 55.4722L39.6543 61.5172H39.6093L35.5593 55.4722L35.8143 55.3372V65.0872H34.8393ZM54.8965 65.0872V53.9122H55.7215L59.8915 60.1222H59.4865L63.6715 53.9122H64.4965V65.0872H63.5215V55.3372L63.7615 55.4722L59.7115 61.5172H59.6665L55.6165 55.4722L55.8715 55.3372V65.0872H54.8965ZM74.9538 65.0872V53.9122H82.0038V54.8122H75.9288V59.0272H81.7038V59.9272H75.9288V64.1872H82.0038V65.0872H74.9538ZM91.803 65.0872V53.9122H95.553C96.263 53.9122 96.888 54.0522 97.428 54.3322C97.968 54.6122 98.388 55.0072 98.688 55.5172C98.998 56.0272 99.153 56.6172 99.153 57.2872C99.153 58.0872 98.933 58.7722 98.493 59.3422C98.063 59.9022 97.483 60.2872 96.753 60.4972L99.393 65.0872H98.238L95.463 60.1972L96.273 60.6622H92.778V65.0872H91.803ZM92.778 59.7622H95.583C96.093 59.7622 96.543 59.6622 96.933 59.4622C97.323 59.2522 97.628 58.9622 97.848 58.5922C98.068 58.2122 98.178 57.7722 98.178 57.2722C98.178 56.7722 98.068 56.3422 97.848 55.9822C97.628 55.6122 97.323 55.3272 96.933 55.1272C96.543 54.9172 96.093 54.8122 95.583 54.8122H92.778V59.7622ZM112.648 65.2672C111.938 65.2672 111.298 65.1322 110.728 64.8622C110.168 64.5922 109.698 64.2372 109.318 63.7972C108.948 63.3572 108.683 62.8822 108.523 62.3722L109.393 62.0572C109.673 62.8172 110.088 63.3972 110.638 63.7972C111.198 64.1972 111.863 64.3972 112.633 64.3972C113.143 64.3972 113.588 64.3122 113.968 64.1422C114.358 63.9722 114.663 63.7322 114.883 63.4222C115.103 63.1122 115.213 62.7472 115.213 62.3272C115.213 61.7472 115.048 61.2972 114.718 60.9772C114.398 60.6572 113.978 60.4272 113.458 60.2872L111.418 59.6872C110.588 59.4472 109.973 59.0622 109.573 58.5322C109.183 57.9922 108.988 57.3822 108.988 56.7022C108.988 56.1122 109.128 55.5972 109.408 55.1572C109.698 54.7072 110.088 54.3572 110.578 54.1072C111.068 53.8572 111.623 53.7322 112.243 53.7322C112.893 53.7322 113.473 53.8572 113.983 54.1072C114.503 54.3472 114.938 54.6672 115.288 55.0672C115.648 55.4572 115.903 55.8922 116.053 56.3722L115.198 56.6872C114.948 55.9972 114.563 55.4772 114.043 55.1272C113.523 54.7672 112.928 54.5872 112.258 54.5872C111.818 54.5872 111.423 54.6722 111.073 54.8422C110.723 55.0122 110.448 55.2522 110.248 55.5622C110.048 55.8722 109.948 56.2372 109.948 56.6572C109.948 57.1672 110.093 57.6022 110.383 57.9622C110.673 58.3222 111.158 58.6072 111.838 58.8172L113.668 59.3572C114.468 59.5972 115.083 59.9672 115.513 60.4672C115.953 60.9572 116.173 61.5622 116.173 62.2822C116.173 62.8722 116.023 63.3922 115.723 63.8422C115.423 64.2822 115.003 64.6322 114.463 64.8922C113.933 65.1422 113.328 65.2672 112.648 65.2672ZM126.307 65.0872V53.9122H133.357V54.8122H127.282V59.0272H133.057V59.9272H127.282V64.1872H133.357V65.0872H126.307Z" fill="white"/>
<path fill-rule="evenodd" clip-rule="evenodd" d="M149.515 67.8262C148.28 66.2719 147.543 64.3086 147.543 62.1742C147.543 57.1342 151.654 53.0485 156.725 53.0485C161.796 53.0485 165.907 57.1342 165.907 62.1742C165.907 64.3092 165.169 66.2728 163.933 67.8273C166.448 65.763 168.05 62.6408 168.05 59.15C168.05 52.942 162.985 47.9 156.725 47.9C150.465 47.9 145.4 52.942 145.4 59.15C145.4 62.6402 147.001 65.7618 149.515 67.8262ZM156.69 71.2999C149.954 71.2812 144.5 65.8487 144.5 59.15C144.5 52.4397 149.973 47 156.725 47C163.477 47 168.95 52.4397 168.95 59.15C168.95 65.8493 163.495 71.2822 156.758 71.3C156.747 71.3 156.736 71.3 156.725 71.3C156.713 71.3 156.702 71.3 156.69 71.2999ZM150.693 63.3415C150.693 66.7305 153.026 69.5779 156.184 70.3827C151.857 70.1058 148.443 66.5318 148.443 62.1742C148.443 57.6365 152.145 53.9485 156.725 53.9485C160.886 53.9485 164.323 56.9937 164.916 60.9545C163.923 58.1126 161.204 56.0727 158.006 56.0727C153.967 56.0727 150.693 59.327 150.693 63.3415ZM164.03 65.5338C163.13 67.9689 160.776 69.7103 158.006 69.7103C154.459 69.7103 151.593 66.8536 151.593 63.3415C151.593 60.4614 153.52 58.0221 156.17 57.2374C154.219 58.216 152.881 60.2255 152.881 62.5456C152.881 65.8275 155.558 68.488 158.86 68.488C161.066 68.488 162.993 67.3006 164.03 65.5338ZM163.939 62.5456C163.939 65.3252 161.671 67.588 158.86 67.588C156.05 67.588 153.781 65.3252 153.781 62.5456C153.781 59.766 156.05 57.5033 158.86 57.5033C161.671 57.5033 163.939 59.766 163.939 62.5456Z" fill="white"/>
<path d="M184.16 65.2672C183.36 65.2672 182.615 65.1222 181.925 64.8322C181.235 64.5422 180.63 64.1372 180.11 63.6172C179.59 63.0972 179.185 62.4872 178.895 61.7872C178.605 61.0872 178.46 60.3222 178.46 59.4922C178.46 58.6622 178.6 57.8972 178.88 57.1972C179.16 56.4872 179.555 55.8772 180.065 55.3672C180.575 54.8472 181.17 54.4472 181.85 54.1672C182.54 53.8772 183.29 53.7322 184.1 53.7322C184.91 53.7322 185.635 53.8672 186.275 54.1372C186.925 54.4072 187.475 54.7672 187.925 55.2172C188.375 55.6672 188.695 56.1672 188.885 56.7172L186.83 57.7072C186.64 57.1672 186.305 56.7222 185.825 56.3722C185.355 56.0122 184.78 55.8322 184.1 55.8322C183.44 55.8322 182.86 55.9872 182.36 56.2972C181.86 56.6072 181.47 57.0372 181.19 57.5872C180.92 58.1272 180.785 58.7622 180.785 59.4922C180.785 60.2222 180.93 60.8622 181.22 61.4122C181.51 61.9622 181.905 62.3922 182.405 62.7022C182.915 63.0122 183.5 63.1672 184.16 63.1672C184.67 63.1672 185.145 63.0722 185.585 62.8822C186.035 62.6822 186.395 62.3972 186.665 62.0272C186.945 61.6572 187.085 61.2122 187.085 60.6922V59.7622L188.15 60.6622H184.1V58.7122H189.41V59.8972C189.41 60.8072 189.26 61.6022 188.96 62.2822C188.66 62.9522 188.255 63.5122 187.745 63.9622C187.245 64.4022 186.68 64.7322 186.05 64.9522C185.43 65.1622 184.8 65.2672 184.16 65.2672ZM192.709 65.0872V55.9372H189.874V53.9122H197.824V55.9372H195.034V65.0872H192.709Z" fill="white"/>
</svg>
