<svg width="91" height="88" viewBox="0 0 91 88" fill="none" xmlns="http://www.w3.org/2000/svg">
<path d="M45.522 69.1C59.6504 69.0881 71.1 57.6311 71.1 43.5C71.1 29.3615 59.6385 17.9 45.5 17.9C31.3615 17.9 19.9 29.3615 19.9 43.5C19.9 57.6311 31.3496 69.0881 45.478 69.1L45.5 69.1L45.522 69.1ZM45.5213 68.2319L45.5 68.2319L45.4788 68.2319C35.335 68.2205 27.1153 59.9937 27.1153 49.8472C27.1153 39.6936 35.3464 31.4624 45.5 31.4624C55.6536 31.4624 63.8847 39.6936 63.8847 49.8472C63.8847 51.2143 63.7355 52.5464 63.4525 53.8283C63.5024 53.3246 63.5279 52.8137 63.5279 52.2969C63.5279 43.8164 56.6531 36.9415 48.1725 36.9415C39.6919 36.9415 32.817 43.8164 32.817 52.2969C32.817 60.7775 39.6919 67.6524 48.1725 67.6524C49.1452 67.6524 50.0969 67.5619 51.0195 67.389C49.2837 67.9346 47.4369 68.2297 45.5213 68.2319ZM26.2472 49.8472C26.2472 56.4056 29.5265 62.198 34.5346 65.6743C26.3766 61.6323 20.7681 53.221 20.7681 43.5C20.7681 29.841 31.841 18.7681 45.5 18.7681C59.159 18.7681 70.2319 29.841 70.2319 43.5C70.2319 53.221 64.6234 61.6323 56.4654 65.6743C61.4735 62.198 64.7528 56.4056 64.7528 49.8472C64.7528 39.2141 56.1331 30.5943 45.5 30.5943C34.867 30.5943 26.2472 39.2141 26.2472 49.8472ZM62.6598 52.2969C62.6598 60.2981 56.1736 66.7843 48.1725 66.7843C40.1714 66.7843 33.6852 60.2981 33.6852 52.2969C33.6852 44.2958 40.1714 37.8096 48.1725 37.8096C49.1786 37.8096 50.1607 37.9122 51.109 38.1074C50.7286 38.0727 50.3435 38.055 49.9542 38.055C43.011 38.055 37.3825 43.6835 37.3825 50.6266C37.3825 57.5698 43.011 63.1983 49.9542 63.1983C56.8973 63.1983 62.5258 57.5698 62.5258 50.6266C62.5258 50.5123 62.5242 50.3982 62.5212 50.2846C62.6126 50.9423 62.6598 51.6141 62.6598 52.2969ZM61.6576 50.6266C61.6576 57.0903 56.4178 62.3301 49.9542 62.3301C43.4905 62.3301 38.2507 57.0903 38.2507 50.6266C38.2507 44.163 43.4905 38.9231 49.9542 38.9231C56.4178 38.9231 61.6576 44.163 61.6576 50.6266Z" fill="white" stroke="black" stroke-width="0.2"/>
</svg>
